# xmcd
#
# Track frame offsets:
#	182
#	16105
#	32430
#	49282
#	65602
#
# Disc length: 1222 seconds
#
# Revision: 3
# Processed by: cddbd v1.5.2PL0 Copyright (c) Steve Scherf et al.
# Submitted via: audiograbber 1.83.01
#
DISCID=3704c405
DTITLE=Melanie Thornton - Love How You Love Me [CD Single)
DYEAR=2000
DGENRE=Dance
TTITLE0=Melanie Thornton - Love How You Love Me (Original Radio Mix)
TTITLE1=Melanie Thornton - Love How You Love Me (Chicago Radio Remix)
TTITLE2=Melanie Thornton - Love How You Love Me (Deep Chilled Store Cut)
TTITLE3=Melanie Thornton - Love How You Love Me (Art-of-Soul Tight Mix)
TTITLE4=Melanie Thornton - Love How You Love Me (Chicago Main Room Remix)
EXTD=
EXTT0=
EXTT1=
EXTT2=
EXTT3=
EXTT4=
PLAYORDER=
